<?xml version="1.0" encoding="utf-8"?>
<!-- Generator: Adobe Illustrator 19.0.0, SVG Export Plug-In . SVG Version: 6.00 Build 0)  -->
<svg version="1.1" id="Layer_1" xmlns="http://www.w3.org/2000/svg" xmlns:xlink="http://www.w3.org/1999/xlink" x="0px" y="0px"
	 viewBox="0 0 192 24" style="enable-background:new 0 0 192 24;" xml:space="preserve">
<style type="text/css">
	.st0{fill:#4D4D4D;}
</style>
<g id="XMLID_79_">
	<path id="XMLID_1125_" class="st0" d="M36.8,21.5c-0.1-0.1-0.2-0.2-0.3-0.5c-0.2-0.6-0.3-1.5-0.3-2.6c0-3.2-2.2-4.8-3.2-5.3
		c0,0-0.1,0-0.1,0c2.2-1.2,3.6-3.5,3.6-6c0-3.7-3-6.8-6.7-6.8h-6.6c-0.5,0-0.9,0.5-0.9,0.9v21.6c0,0.5,0.4,0.9,0.9,0.9
		c0.5,0,1-0.4,1-0.9v-9.1l5.5,0c0,0,0.1,0,0.1,0.1c0.4,0.1,1.6,0.4,2.6,1.1c1.3,0.9,1.8,2,1.8,3.4c0,1.8,0.2,3,0.6,3.9
		c0.4,0.7,1.1,1.1,1.6,1.1h0.1c0.1,0,0.3,0,0.4,0l0.1,0c0.5-0.2,0.7-0.7,0.6-1.2C37.7,21.7,37.2,21.5,36.8,21.5z M30,11.9h-5.7V2.2
		h5.6c2.7,0,4.9,2.2,4.9,4.9C34.8,9.6,32.6,11.8,30,11.9z"/>
	<path id="XMLID_1124_" class="st0" d="M52.3,2c2.3,0,4.5,0.8,6.4,2.2c0.2,0.2,0.5,0.2,0.7,0.2c0.3,0,0.5-0.2,0.6-0.4
		c0.2-0.2,0.2-0.4,0.2-0.6c0-0.3-0.2-0.6-0.4-0.7C57.7,1,55,0.1,52.3,0.1h0c-6.8,0-12.2,5.3-12.2,12c0,6.5,5.5,11.9,12.2,11.9
		c2.8,0,5.4-0.9,7.6-2.6c0.2-0.2,0.4-0.4,0.4-0.7c0-0.3-0.1-0.5-0.2-0.7c-0.1-0.2-0.3-0.3-0.5-0.4c-0.3-0.1-0.6,0-0.8,0.2
		C57,21.2,54.7,22,52.3,22C46.6,22,42,17.6,42,12.1C42,6.5,46.6,2,52.3,2z"/>
	<path id="XMLID_1123_" class="st0" d="M79.5,0.2c-0.5,0-0.9,0.4-0.9,0.9v9.9H66.9V1.2c0-0.5-0.4-0.9-1-0.9c-0.5,0-0.9,0.4-0.9,0.9
		v21.6c0,0.5,0.4,0.9,0.9,0.9c0.5,0,1-0.4,1-0.9v-9.9h11.6v9.9c0,0.5,0.4,0.9,0.9,0.9c0.5,0,1-0.4,1-0.9V1.2
		C80.5,0.7,80.1,0.2,79.5,0.2z"/>
	<path id="XMLID_1122_" class="st0" d="M98.9,2.2c0.5,0,0.9-0.4,0.9-1c0-0.5-0.4-0.9-0.9-0.9H87c-0.5,0-0.9,0.4-0.9,0.9v21.6
		c0,0.5,0.4,0.9,0.9,0.9h12c0.5,0,0.9-0.4,0.9-0.9c0-0.6-0.4-1-0.9-1H88V13h9.6c0.5,0,0.9-0.4,0.9-0.9c0-0.5-0.4-1-0.9-1H88V2.2
		H98.9z"/>
	<path id="XMLID_1119_" class="st0" d="M114.4,0.1c-6.3,0-11.3,5.2-11.3,11.9c0,6.7,5,11.9,11.3,11.9c6.3,0,11.2-5.2,11.2-11.9
		C125.6,5.3,120.7,0.1,114.4,0.1z M114.4,22c-5.2,0-9.4-4.5-9.4-10c0-5.6,4.1-10,9.4-10c5.1,0,9.3,4.5,9.3,10
		C123.7,17.5,119.5,22,114.4,22z"/>
	<path id="XMLID_1118_" class="st0" d="M143.5,22.8h-12v-22c0-0.2-0.2-0.4-0.4-0.4c-0.2,0-0.4,0.2-0.4,0.4v22.4
		c0,0.2,0.2,0.4,0.4,0.4h0.1h12.3c0.3,0,0.4-0.2,0.4-0.4S143.8,22.8,143.5,22.8z"/>
	<path id="XMLID_1115_" class="st0" d="M155.9,0c-6.3,0-11.3,5.3-11.3,12c0,6.7,5,12,11.3,12c6.3,0,11.3-5.3,11.3-12
		C167.2,5.3,162.2,0,155.9,0z M155.9,23.1c-5.7-0.1-10.4-5-10.4-11.1c0-6.2,4.7-11.1,10.4-11.1c5.7,0,10.4,4.9,10.4,11.1
		C166.3,18.1,161.6,23,155.9,23.1z"/>
	<path id="XMLID_1114_" class="st0" d="M191.6,12.1L191.6,12.1H184c-0.2,0-0.4,0.2-0.4,0.5c0,0.2,0.2,0.4,0.4,0.4h7.1v7.9
		c-1.9,1.4-4.3,2.3-6.9,2.3c-6.3,0-11.4-5-11.4-11.2c0-6.1,5.1-11.1,11.4-11.1c2.7,0,5.2,0.9,7.1,2.5c0.2,0.2,0.5,0.1,0.6,0
		c0.2-0.2,0.1-0.5-0.1-0.7C189.7,1,187.1,0,184.2,0c-6.8,0-12.3,5.3-12.3,11.9c0,6.6,5.5,12,12.3,12c2.9,0,5.6-1,7.6-2.6
		c0.1-0.1,0.1-0.1,0.1-0.2v-0.1c0,0,0-0.1,0-0.1v-8.4C192,12.3,191.8,12.1,191.6,12.1z"/>
	<path id="XMLID_1112_" class="st0" d="M10,0.9C9.9,0.5,9.5,0.3,9,0.3c-0.4,0-0.8,0.2-0.9,0.6L0.1,22.4c-0.2,0.5,0.1,1,0.5,1.2
		l0.1,0c0,0,0.1,0,0.2,0c0.1,0,0.1,0,0.1,0c0.4,0,0.7-0.2,0.9-0.6L9.1,3.9l7.2,19.2c0.1,0.4,0.5,0.6,0.9,0.6c0.1,0,0.1,0,0.2,0
		c0,0,0.1,0,0.1,0l0.1,0c0.5-0.2,0.7-0.8,0.5-1.2L10,0.9z"/>
</g>
</svg>
