<?xml version="1.0" encoding="utf-8"?>
<!-- Generator: Adobe Illustrator 19.0.0, SVG Export Plug-In . SVG Version: 6.00 Build 0)  -->
<svg version="1.1" id="Layer_1" xmlns="http://www.w3.org/2000/svg" xmlns:xlink="http://www.w3.org/1999/xlink" x="0px" y="0px"
	 viewBox="-374.1 207.1 210 148" style="enable-background:new -374.1 207.1 210 148;" xml:space="preserve">
<style type="text/css">
	.st0{fill:#4D4D4D;}
</style>
<g id="XMLID_1108_">
	<g id="XMLID_1128_">
		<path id="XMLID_1132_" class="st0" d="M-216.5,302.1c-0.4,0-0.7,0-1.1,0c-19.5,0.1-35.8,2.3-51.5,4.4c-15.7,2.1-32.1,4.3-51.2,4.3
			c-37.6,0-52.5-8.5-52.7-8.6c-0.2,0-0.6,0.1-0.7,0.3c-0.2,0.3-0.1,0.6,0.2,0.8c0.6,0.4,15.3,8.7,53.3,8.7c19.3,0,35.6-2.2,51.4-4.3
			c15.7-2.1,32.1-4.3,51.4-4.4c38.2-0.2,51.7,8.6,51.9,8.6c0.3,0.2,0.6,0.1,0.8-0.2s0.1-0.6-0.2-0.8
			C-165.5,310.6-178.6,302.1-216.5,302.1z"/>
		<path id="XMLID_1131_" class="st0" d="M-164.8,267.2c-0.4-0.2-11.1-4.5-31-4.5c-17.7,0-36.6,5.2-56.7,10.8
			c-24.1,6.7-51.2,14.2-82,14.2c-25.2,0-38.2-3.1-38.3-3.2c-0.6-0.1-1.2,0.2-1.3,0.8c-0.1,0.6,0.2,1.2,0.8,1.3
			c0.5,0.1,13.4,3.2,38.9,3.2c31.1,0,58.5-7.6,82.6-14.3c19.9-5.5,38.6-10.7,56-10.7c19.4,0,30.1,4.3,30.2,4.3
			c0.6,0.2,1.2,0,1.4-0.6C-164,268-164.3,267.4-164.8,267.2z"/>
		<path id="XMLID_1130_" class="st0" d="M-373.2,264.6c44.3,0,77.7-14.9,109.9-29.3c31.1-13.9,60.4-27,98-27c0.3,0,0.6-0.3,0.6-0.6
			s-0.2-0.5-0.6-0.5c-37.9,0-67.3,13.1-98.5,27.1c-32.1,14.3-65.3,29.1-109.4,29.1c-0.3,0-0.6,0.3-0.6,0.6S-373.5,264.6-373.2,264.6
			z"/>
		<path id="XMLID_1129_" class="st0" d="M-373.2,234.4c37.7,0,56.6-17.2,61.3-26.3c0.1-0.3,0-0.6-0.2-0.7c-0.3-0.1-0.6,0-0.8,0.3
			c-4.6,8.8-23.1,25.7-60.3,25.7l0,0c-0.3,0-0.6,0.1-0.6,0.5C-373.8,234.2-373.5,234.4-373.2,234.4z"/>
	</g>
	<g id="XMLID_1110_">
		<path id="XMLID_1125_" class="st0" d="M-333.6,352.2c-0.1-0.1-0.2-0.2-0.3-0.5c-0.2-0.6-0.3-1.6-0.3-2.9c0-3.4-2.4-5.1-3.5-5.7
			h-0.1c2.4-1.3,3.9-3.8,3.9-6.5c0-4-3.3-7.3-7.3-7.3h-7.2c-0.5,0-0.9,0.5-0.9,1v23.4c0,0.6,0.5,1,1,1c0.6,0,1.1-0.5,1.1-1v-9.8h5.9
			c0,0,0.1,0,0.2,0.1c0.5,0.1,1.8,0.5,2.8,1.2c1.4,1,2,2.2,2,3.7c0,2,0.2,3.3,0.7,4.2c0.4,0.8,1.2,1.2,1.8,1.2h0.1
			c0.2,0,0.3,0,0.4,0h0.1c0.5-0.2,0.8-0.8,0.7-1.3C-332.7,352.5-333.1,352.2-333.6,352.2z M-340.9,341.9h-6.2v-10.5h6.1
			c2.9,0,5.3,2.4,5.3,5.3C-335.8,339.4-338.1,341.8-340.9,341.9z"/>
		<path id="XMLID_1124_" class="st0" d="M-316.7,331c2.5,0,4.9,0.8,6.9,2.4c0.2,0.2,0.5,0.3,0.8,0.2c0.3,0,0.5-0.2,0.6-0.4
			c0.2-0.2,0.3-0.4,0.2-0.7c0-0.3-0.2-0.6-0.4-0.8c-2.3-1.8-5.3-2.8-8.2-2.8l0,0c-7.4,0-13.2,5.7-13.2,13c0,7.1,5.9,12.8,13.2,12.8
			c3,0,5.9-1,8.2-2.8c0.2-0.2,0.4-0.5,0.4-0.8c0-0.3-0.1-0.5-0.3-0.7c-0.1-0.2-0.3-0.4-0.6-0.4c-0.3-0.1-0.6,0-0.9,0.2
			c-1.8,1.6-4.3,2.4-6.9,2.4c-6.2,0-11.2-4.8-11.2-10.8C-328,335.9-322.9,331-316.7,331z"/>
		<path id="XMLID_1123_" class="st0" d="M-287.1,329.3c-0.6,0-1,0.5-1,1V341h-12.7v-10.7c0-0.6-0.5-1-1.1-1c-0.6,0-1,0.5-1,1v23.4
			c0,0.6,0.5,1,1,1c0.6,0,1.1-0.5,1.1-1V343h12.6v10.7c0,0.6,0.5,1,1,1c0.6,0,1.1-0.5,1.1-1v-23.4
			C-286.1,329.7-286.6,329.3-287.1,329.3z"/>
		<path id="XMLID_1122_" class="st0" d="M-266.1,331.3c0.6,0,1-0.5,1-1.1s-0.4-1-1-1H-279c-0.6,0-1,0.5-1,1v23.4c0,0.5,0.4,1,0.9,1
			h13c0.6,0,1-0.4,1-1c0-0.6-0.4-1.1-1-1.1H-278v-9.6h10.4c0.6,0,1-0.5,1-1c0-0.6-0.5-1.1-1-1.1H-278v-9.6h11.9V331.3z"/>
		<path id="XMLID_1119_" class="st0" d="M-249.3,328.9c-6.9,0-12.3,5.7-12.3,12.9s5.4,12.9,12.3,12.9c6.8,0,12.1-5.7,12.2-12.9
			C-237.1,334.6-242.5,328.9-249.3,328.9z M-249.3,352.6c-5.6,0-10.2-4.9-10.2-10.8c0-6.1,4.5-10.8,10.2-10.8
			c5.5,0,10,4.8,10.1,10.8C-239.2,347.8-243.8,352.6-249.3,352.6z"/>
		<path id="XMLID_1118_" class="st0" d="M-217.7,353.7h-13v-23.8c0-0.3-0.2-0.5-0.4-0.5c-0.3,0-0.5,0.2-0.5,0.5v24.2
			c0,0.3,0.2,0.5,0.5,0.5h0.1h13.3c0.3,0,0.5-0.2,0.5-0.5S-217.4,353.7-217.7,353.7z"/>
		<path id="XMLID_1115_" class="st0" d="M-204.2,329.1c-6.8,0-12.2,5.8-12.2,13s5.5,13,12.2,13c6.8,0,12.2-5.8,12.3-13
			C-192,334.9-197.4,329.1-204.2,329.1z M-204.2,354.1c-6.2-0.1-11.3-5.4-11.3-12c0-6.7,5.1-12,11.3-12c6.1,0,11.2,5.3,11.3,12
			C-193,348.7-198.1,354-204.2,354.1z"/>
		<path id="XMLID_1114_" class="st0" d="M-165.5,341.7L-165.5,341.7h-8.2c-0.2,0-0.5,0.2-0.5,0.5c0,0.2,0.3,0.4,0.5,0.4h7.7v8.5
			c-2.1,1.5-4.7,2.5-7.5,2.5c-6.8,0-12.4-5.4-12.4-12.1c0-6.6,5.5-12,12.4-12c2.9,0,5.6,1,7.7,2.7c0.2,0.2,0.5,0.1,0.7,0
			c0.2-0.3,0.1-0.5-0.1-0.7c-2.2-1.8-5.1-2.8-8.3-2.8c-7.3,0-13.3,5.8-13.3,12.9c0,7.2,6,13,13.3,13c3.1,0,6-1.1,8.3-2.8
			c0.1-0.1,0.1-0.1,0.1-0.3v-0.1v-0.1v-9.1C-165.1,341.9-165.2,341.7-165.5,341.7z"/>
		<path id="XMLID_1112_" class="st0" d="M-362.8,330c-0.1-0.4-0.5-0.6-1-0.6c-0.4,0-0.8,0.3-1,0.6l-8.7,23.3
			c-0.2,0.5,0.1,1.1,0.6,1.3h0.1c0.1,0,0.1,0,0.2,0c0.1,0,0.1,0,0.2,0c0.4,0,0.8-0.3,1-0.7l7.8-20.8l7.8,20.8c0.2,0.4,0.6,0.7,1,0.7
			c0.1,0,0.1,0,0.2,0c0,0,0.1,0,0.2,0h0.1c0.5-0.2,0.8-0.8,0.6-1.3L-362.8,330z"/>
	</g>
</g>
</svg>
